<svg width="20" height="20" viewBox="0 0 20 20" fill="none" xmlns="http://www.w3.org/2000/svg">
<g clip-path="url(#clip0_685_1607)">
<path fill-rule="evenodd" clip-rule="evenodd" d="M4.81414 4.20946L5.42127 3.60233C5.75657 3.26703 6.30022 3.26703 6.63553 3.60234L6.93909 3.9059L5.1177 5.72729L4.81413 5.42373C4.47883 5.08842 4.47883 4.54477 4.81414 4.20946ZM16.9567 16.3521L17.5639 15.7449C17.8992 15.4096 17.8992 14.866 17.5639 14.5307L17.2603 14.2271L11.7961 8.76294L9.97474 10.5843L15.4389 16.0485L15.7425 16.3521C16.0778 16.6874 16.6214 16.6874 16.9567 16.3521ZM7.34205 12.0023L13.2134 6.13092C13.6039 5.7404 13.6039 5.10723 13.2134 4.71671L10.9848 2.48814C10.5943 2.09761 9.96114 2.09762 9.57062 2.48814L3.69927 8.35949C3.30874 8.75001 3.30874 9.38318 3.69927 9.7737L4.81355 10.888L5.92784 12.0023C6.31836 12.3928 6.95152 12.3928 7.34205 12.0023Z" fill="#8594AA"/>
<rect x="4.33203" y="16.668" width="6.66667" height="1.66667" rx="0.833333" fill="#8594AA"/>
</g>
<defs>
<clipPath id="clip0_685_1607">
<rect width="20" height="20" fill="white"/>
</clipPath>
</defs>
</svg>
