<svg width="20" height="20" viewBox="0 0 20 20" fill="none" xmlns="http://www.w3.org/2000/svg">
<path fill-rule="evenodd" clip-rule="evenodd" d="M3.45825 1.66699C2.35368 1.66699 1.45825 2.56242 1.45825 3.66699V6.33366C1.45825 7.43823 2.35368 8.33366 3.45825 8.33366H7.79158C8.89615 8.33366 9.79158 7.43823 9.79158 6.33366V3.66699C9.79158 2.56242 8.89615 1.66699 7.79158 1.66699H3.45825ZM11.7916 11.667C10.687 11.667 9.79159 12.5624 9.79159 13.667V16.3337C9.79159 17.4382 10.687 18.3337 11.7916 18.3337H16.1249C17.2295 18.3337 18.1249 17.4382 18.1249 16.3337V13.667C18.1249 12.5624 17.2295 11.667 16.1249 11.667H11.7916ZM16.9612 5.62533L16.3615 6.22505C16.1174 6.46913 16.1174 6.86486 16.3615 7.10893C16.6056 7.35301 17.0013 7.35301 17.2454 7.10893L18.3228 6.03152C18.8923 5.46201 18.8923 4.53864 18.3228 3.96913L17.2454 2.89172C17.0013 2.64764 16.6056 2.64764 16.3615 2.89172C16.1174 3.13579 16.1174 3.53152 16.3615 3.7756L16.9612 4.37533H13.1249C12.7797 4.37533 12.4999 4.65515 12.4999 5.00033C12.4999 5.3455 12.7797 5.62533 13.1249 5.62533L16.9612 5.62533ZM3.22168 16.225L2.62196 15.6253H6.45825C6.80343 15.6253 7.08325 15.3455 7.08325 15.0003C7.08325 14.6551 6.80343 14.3753 6.45825 14.3753H2.62196L3.22168 13.7756C3.46576 13.5315 3.46576 13.1358 3.22168 12.8917C2.9776 12.6476 2.58188 12.6476 2.3378 12.8917L1.26039 13.9691C0.690873 14.5386 0.690874 15.462 1.26039 16.0315L2.3378 17.1089C2.58188 17.353 2.9776 17.353 3.22168 17.1089C3.46576 16.8649 3.46576 16.4691 3.22168 16.225Z" fill="#1F242C"/>
</svg>
