<svg width="16" height="16" viewBox="0 0 16 16" fill="none" xmlns="http://www.w3.org/2000/svg">
<path fill-rule="evenodd" clip-rule="evenodd" d="M4.66797 6.66602C5.77254 6.66602 6.66797 5.77059 6.66797 4.66602C6.66797 3.56145 5.77254 2.66602 4.66797 2.66602C3.5634 2.66602 2.66797 3.56145 2.66797 4.66602C2.66797 5.77059 3.5634 6.66602 4.66797 6.66602ZM11.3359 13.332C12.4405 13.332 13.3359 12.4366 13.3359 11.332C13.3359 10.2275 12.4405 9.33203 11.3359 9.33203C10.2314 9.33203 9.33594 10.2275 9.33594 11.332C9.33594 12.4366 10.2314 13.332 11.3359 13.332ZM6.66797 11.332C6.66797 12.4366 5.77254 13.332 4.66797 13.332C3.5634 13.332 2.66797 12.4366 2.66797 11.332C2.66797 10.2275 3.5634 9.33203 4.66797 9.33203C5.77254 9.33203 6.66797 10.2275 6.66797 11.332ZM11.3359 6.66602C12.4405 6.66602 13.3359 5.77059 13.3359 4.66602C13.3359 3.56145 12.4405 2.66602 11.3359 2.66602C10.2314 2.66602 9.33594 3.56145 9.33594 4.66602C9.33594 5.77059 10.2314 6.66602 11.3359 6.66602Z" fill="#DCE1F5"/>
</svg>
