<svg width="20" height="20" viewBox="0 0 20 20" fill="none" xmlns="http://www.w3.org/2000/svg">
<path fill-rule="evenodd" clip-rule="evenodd" d="M2.5 4.79167H7.7946C8.06665 5.75354 8.95102 6.45833 10 6.45833C11.049 6.45833 11.9333 5.75354 12.2054 4.79167H17.5C17.8452 4.79167 18.125 4.51184 18.125 4.16667C18.125 3.82149 17.8452 3.54167 17.5 3.54167H12.2054C11.9333 2.57979 11.049 1.875 10 1.875C8.95102 1.875 8.06665 2.57979 7.7946 3.54167H2.5C2.15482 3.54167 1.875 3.82149 1.875 4.16667C1.875 4.51184 2.15482 4.79167 2.5 4.79167ZM14.1667 7.70898C12.901 7.70898 11.875 8.735 11.875 10.0007C11.875 11.2663 12.901 12.2923 14.1667 12.2923C15.2156 12.2923 16.1 11.5875 16.3721 10.6257H17.5C17.8452 10.6257 18.125 10.3458 18.125 10.0007C18.125 9.65547 17.8452 9.37565 17.5 9.37565H16.3721C16.1 8.41377 15.2156 7.70898 14.1667 7.70898ZM1.875 10.0007C1.875 9.65547 2.15482 9.37565 2.5 9.37565H10C10.3452 9.37565 10.625 9.65547 10.625 10.0007C10.625 10.3458 10.3452 10.6257 10 10.6257H2.5C2.15482 10.6257 1.875 10.3458 1.875 10.0007ZM3.62793 16.4577H2.5C2.15482 16.4577 1.875 16.1779 1.875 15.8327C1.875 15.4875 2.15482 15.2077 2.5 15.2077H3.62793C3.89998 14.2458 4.78435 13.541 5.83333 13.541C7.09899 13.541 8.125 14.567 8.125 15.8327C8.125 17.0983 7.09899 18.1243 5.83333 18.1243C4.78435 18.1243 3.89998 17.4196 3.62793 16.4577ZM9.375 15.8327C9.375 15.4875 9.65482 15.2077 10 15.2077H17.5C17.8452 15.2077 18.125 15.4875 18.125 15.8327C18.125 16.1779 17.8452 16.4577 17.5 16.4577H10C9.65482 16.4577 9.375 16.1779 9.375 15.8327Z" fill="#8594AA"/>
</svg>
