<svg width="20" height="20" viewBox="0 0 20 20" fill="none" xmlns="http://www.w3.org/2000/svg">
<path fill-rule="evenodd" clip-rule="evenodd" d="M8.20019 4.2191C7.90067 4.97401 7.6569 5.89099 7.49217 6.92045C8.28916 6.84745 9.13122 6.80859 10.0001 6.80859C10.869 6.80859 11.711 6.84745 12.508 6.92045C12.3433 5.89099 12.0995 4.97401 11.8 4.2191C11.5121 3.49351 11.1852 2.94916 10.8545 2.59665C10.5251 2.24549 10.2361 2.12754 10.0001 2.12754C9.76405 2.12754 9.47512 2.24549 9.14571 2.59665C8.81504 2.94916 8.48808 3.49351 8.20019 4.2191ZM7.02445 3.74496C6.65073 4.6869 6.36397 5.82157 6.18821 7.07597C5.32304 7.2046 4.5335 7.37624 3.84872 7.58335C3.05194 7.82434 2.36102 8.12397 1.85516 8.4857C1.79125 8.5314 1.72817 8.5797 1.66679 8.63062C2.22516 5.15104 4.87603 2.37832 8.27583 1.66699C8.25897 1.68429 8.24224 1.70178 8.22566 1.71946C7.74834 2.22831 7.34766 2.93036 7.02445 3.74496ZM11.7244 1.66699C11.7412 1.68429 11.758 1.70178 11.7745 1.71946C12.2519 2.22831 12.6525 2.93036 12.9757 3.74496C13.3495 4.6869 13.6362 5.82157 13.812 7.07597C14.6772 7.2046 15.4667 7.37624 16.1515 7.58335C16.9483 7.82434 17.6392 8.12397 18.145 8.4857C18.209 8.5314 18.272 8.5797 18.3334 8.63062C17.775 5.15104 15.1242 2.37832 11.7244 1.66699ZM18.3335 11.3698C18.2721 11.4207 18.209 11.469 18.145 11.5147C17.6392 11.8765 16.9483 12.1761 16.1515 12.4171C15.4667 12.6242 14.6772 12.7958 13.812 12.9245C13.6362 14.1788 13.3495 15.3135 12.9757 16.2555C12.6525 17.0701 12.2519 17.7721 11.7745 18.281C11.7579 18.2987 11.7411 18.3163 11.7241 18.3337C15.1241 17.6224 17.7752 14.8495 18.3335 11.3698ZM8.27608 18.3337C8.25913 18.3163 8.24232 18.2987 8.22566 18.281C7.74834 17.7721 7.34766 17.0701 7.02445 16.2555C6.65073 15.3135 6.36397 14.1788 6.18821 12.9245C5.32304 12.7958 4.5335 12.6242 3.84872 12.4171C3.05194 12.1761 2.36102 11.8765 1.85516 11.5147C1.79123 11.469 1.72814 11.4207 1.66675 11.3698C2.22505 14.8495 4.87608 17.6224 8.27608 18.3337ZM4.21259 11.1943C4.74967 11.3567 5.3676 11.4975 6.04869 11.6105C6.01013 11.087 5.99012 10.5488 5.99012 10.0002C5.99012 9.45166 6.01013 8.91341 6.04869 8.38992C5.3676 8.50292 4.74967 8.64372 4.2126 8.80616C3.48166 9.02723 2.93628 9.27779 2.58776 9.52701C2.22279 9.78798 2.19119 9.95714 2.19119 10.0002C2.19119 10.0433 2.22279 10.2124 2.58776 10.4734C2.93628 10.7226 3.48166 10.9732 4.21259 11.1943ZM7.25643 10.0002C7.25643 10.614 7.28297 11.2102 7.3329 11.7819C8.16532 11.8679 9.06246 11.9152 10.0001 11.9152C10.9377 11.9152 11.8349 11.8679 12.6673 11.7819C12.7172 11.2102 12.7438 10.614 12.7438 10.0002C12.7438 9.38639 12.7172 8.79026 12.6673 8.21855C11.8349 8.13249 10.9377 8.08524 10.0001 8.08524C9.06246 8.08524 8.16532 8.13249 7.3329 8.21855C7.28297 8.79025 7.25643 9.38639 7.25643 10.0002ZM8.20019 15.7813C7.90067 15.0264 7.6569 14.1094 7.49217 13.08C8.28916 13.153 9.13122 13.1918 10.0001 13.1918C10.869 13.1918 11.711 13.153 12.508 13.08C12.3433 14.1094 12.0995 15.0264 11.8 15.7813C11.5121 16.5069 11.1852 17.0513 10.8545 17.4038C10.5251 17.7549 10.2361 17.8729 10.0001 17.8729C9.76405 17.8729 9.47512 17.7549 9.14571 17.4038C8.81504 17.0513 8.48808 16.5069 8.20019 15.7813ZM15.7876 11.1943C15.2505 11.3567 14.6326 11.4975 13.9515 11.6105C13.9901 11.087 14.0101 10.5488 14.0101 10.0002C14.0101 9.45166 13.9901 8.91341 13.9515 8.38993C14.6326 8.50292 15.2505 8.64372 15.7876 8.80616C16.5185 9.02723 17.0639 9.27779 17.4124 9.52701C17.7774 9.78799 17.809 9.95714 17.809 10.0002C17.809 10.0433 17.7774 10.2124 17.4124 10.4734C17.0639 10.7226 16.5185 10.9732 15.7876 11.1943Z" fill="#8594AA"/>
</svg>
