<svg width="18" height="18" viewBox="0 0 18 18" fill="none" xmlns="http://www.w3.org/2000/svg">
<path fill-rule="evenodd" clip-rule="evenodd" d="M9.00003 1.5C9.31069 1.5 9.56253 1.75184 9.56253 2.0625V2.8125C9.56253 3.12316 9.31069 3.375 9.00003 3.375C8.68937 3.375 8.43753 3.12316 8.43753 2.8125V2.0625C8.43753 1.75184 8.68937 1.5 9.00003 1.5ZM13.5 9C13.5 11.4853 11.4853 13.5 9.00003 13.5C6.51475 13.5 4.50003 11.4853 4.50003 9C4.50003 6.51472 6.51475 4.5 9.00003 4.5C11.4853 4.5 13.5 6.51472 13.5 9ZM9.56253 15.1875C9.56253 14.8768 9.31069 14.625 9.00003 14.625C8.68937 14.625 8.43753 14.8768 8.43753 15.1875V15.9375C8.43753 16.2482 8.68937 16.5 9.00003 16.5C9.31069 16.5 9.56253 16.2482 9.56253 15.9375V15.1875ZM2.50492 5.25001C2.66025 4.98097 3.00427 4.88879 3.27331 5.04412L3.92282 5.41912C4.19186 5.57445 4.28404 5.91847 4.12871 6.18751C3.97338 6.45655 3.62936 6.54873 3.36032 6.3934L2.71081 6.0184C2.44177 5.86307 2.34959 5.51905 2.50492 5.25001ZM14.6398 11.6066C14.3707 11.4513 14.0267 11.5435 13.8714 11.8125C13.716 12.0816 13.8082 12.4256 14.0773 12.5809L14.7268 12.9559C14.9958 13.1112 15.3398 13.0191 15.4952 12.75C15.6505 12.481 15.5583 12.137 15.2893 11.9816L14.6398 11.6066ZM15.4951 5.24999C15.6505 5.51903 15.5583 5.86305 15.2893 6.01838L14.6397 6.39338C14.3707 6.54871 14.0267 6.45653 13.8714 6.18749C13.716 5.91845 13.8082 5.57443 14.0772 5.4191L14.7268 5.0441C14.9958 4.88877 15.3398 4.98095 15.4951 5.24999ZM3.92281 12.5809C4.19185 12.4255 4.28403 12.0815 4.1287 11.8125C3.97337 11.5434 3.62935 11.4513 3.36031 11.6066L2.71079 11.9816C2.44175 12.1369 2.34957 12.4809 2.5049 12.75C2.66023 13.019 3.00425 13.1112 3.27329 12.9559L3.92281 12.5809Z" fill="#DCE1F5"/>
</svg>
