<svg width="183" height="32" viewBox="0 0 183 32" fill="none" xmlns="http://www.w3.org/2000/svg">
<g clip-path="url(#clip0_1_670)">
<mask id="mask0_1_670" style="mask-type:luminance" maskUnits="userSpaceOnUse" x="0" y="0" width="32" height="32">
<path d="M31.8657 0H0V32H31.8657V0Z" fill="white"/>
</mask>
<g mask="url(#mask0_1_670)">
<mask id="mask1_1_670" style="mask-type:luminance" maskUnits="userSpaceOnUse" x="0" y="0" width="32" height="32">
<path d="M31.7242 0H0V32H31.7242V0Z" fill="white"/>
</mask>
<g mask="url(#mask1_1_670)">
<path d="M4.3838 4.92564C4.24064 5.06531 4.23433 5.05912 4.36489 4.90723C4.47524 4.77935 4.62 4.62834 4.79917 4.45426C5.3798 3.88902 5.98118 3.38558 6.60332 2.94397C6.69081 2.88176 6.73403 2.84412 6.82006 2.78337C6.86146 2.75413 6.90006 2.7269 6.92686 2.70968C7.52378 2.3308 8.05053 2.02576 8.50715 1.79453C12.3109 -0.131876 16.6459 -0.537983 20.7211 0.742017C21.7085 1.052 22.6204 1.46999 23.4569 1.99598C25.5964 3.34167 27.053 5.70022 26.7117 8.3195C26.4248 10.523 24.8579 12.3613 22.6376 12.6557C20.5107 12.9377 18.6478 11.5816 17.9763 9.55902C17.7292 8.81492 17.5271 7.97987 17.1826 7.19249C16.2467 5.0522 14.6724 3.59389 12.2211 2.90432C11.7341 2.76735 11.2888 2.7022 10.9497 2.66081C9.55308 2.52064 8.117 2.7269 6.82046 3.30964C5.91444 3.71695 5.07109 4.25562 4.3838 4.92564Z" fill="#1F242C"/>
<path d="M0.856767 10.8528C1.7277 8.16027 3.38525 5.62989 5.95235 4.3459C7.20397 3.71992 8.58524 3.44719 9.98269 3.6302C12.43 3.95059 14.5289 5.60466 15.1377 8.07216C15.1569 8.14957 15.1764 8.26038 15.1961 8.40456C15.2166 8.55475 15.2528 8.70975 15.2639 8.85074C15.4455 11.2537 14.0217 13.3127 11.8499 14.1466C11.3549 14.3364 10.6538 14.4782 10.1872 14.5683C9.46395 14.7082 8.76138 14.9191 8.07961 15.2011C5.41006 16.3052 3.54497 18.4087 2.95923 21.5626C2.9342 21.6974 2.91155 21.845 2.90209 21.9091C2.81224 22.5151 2.78002 23.0238 2.85125 23.7325C2.86807 23.8998 2.89578 24.0685 2.90721 24.1594C2.94268 24.4522 2.99952 24.7442 3.0936 25.1106C3.12844 25.2463 3.14741 25.3226 3.19017 25.4559C3.27709 25.7268 3.37144 25.8976 3.46525 26.1299C3.46549 26.131 3.46537 26.1322 3.46492 26.1332C3.46446 26.1343 3.4637 26.1351 3.4627 26.1357C3.46173 26.1362 3.46058 26.1364 3.45948 26.1363C3.45836 26.1361 3.45736 26.1356 3.45657 26.1347C3.30012 25.9105 3.18938 25.7038 3.0148 25.4911C2.9884 25.4591 2.92022 25.361 2.89184 25.3213C2.52639 24.8172 2.20179 24.2874 1.91805 23.7317C1.35489 22.6295 0.876867 21.4549 0.590364 20.245C0.574601 20.1781 0.543073 20.1208 0.528493 20.0587C0.319102 19.1507 0.176047 18.3148 0.0993307 17.5512C-0.122935 15.338 0.146228 13.0488 0.856767 10.8528Z" fill="#1F242C"/>
<path d="M5.47494 21.5537C6.2497 19.359 8.11257 17.8371 10.3912 17.5295C11.1317 17.4298 11.8714 17.4262 12.6363 17.5299C13.3178 17.6226 13.7827 17.6954 14.031 17.7486C14.7501 17.9021 15.3395 18.0044 15.7993 18.0554C17.8875 18.2873 19.9088 18.3465 21.9214 17.775C23.4702 17.3349 24.9988 16.5291 26.1839 15.4221C27.8548 13.8617 28.7842 11.9046 28.972 9.55075C29.0741 8.27514 28.8341 6.84855 28.1496 5.71474C28.1465 5.70965 28.1458 5.70566 28.1476 5.70273C28.1505 5.69819 28.1538 5.69804 28.1575 5.70234C28.9078 6.60745 29.5373 7.5932 30.0459 8.65963C30.4278 9.46063 30.6861 10.1102 30.9905 11.1231C30.9938 11.134 31.0072 11.1932 31.0311 11.3005C31.0497 11.383 31.0876 11.4543 31.1052 11.5324C31.1556 11.753 31.2069 11.9734 31.2591 12.1936C31.2791 12.2793 31.3404 12.5542 31.3853 12.7868C31.9674 15.7847 31.7461 18.0582 31.0108 20.6021C29.1841 26.9217 23.5809 31.2559 17.2188 31.9075C16.2 32.012 15.106 31.9876 14.1492 31.8944C13.6695 31.8474 13.0875 31.7514 12.4034 31.6064C11.2144 31.354 10.0605 30.9219 9.01464 30.2911C9.01175 30.2895 8.97115 30.2689 8.89285 30.2294C8.829 30.1973 8.77619 30.1425 8.72378 30.1088C7.10173 29.0547 5.79296 27.4331 5.30666 25.5231C5.09109 24.6761 5.00439 23.5795 5.18724 22.716C5.21009 22.6071 5.20456 22.4969 5.23018 22.3908C5.30481 22.0829 5.38638 21.8039 5.47494 21.5537Z" fill="#1F242C"/>
</g>
</g>
<path d="M79.5234 25.3911C78.1119 25.3911 76.8509 25.0781 75.7402 24.452C74.6528 23.8259 73.7967 22.9679 73.1718 21.8781C72.5703 20.7651 72.2695 19.4897 72.2695 18.052V8.34766H76.0873V17.8781C76.0873 18.6897 76.2145 19.3853 76.4691 19.9651C76.7468 20.5216 77.1401 20.9506 77.6491 21.252C78.1814 21.5534 78.8059 21.7042 79.5234 21.7042C80.6341 21.7042 81.4787 21.3796 82.0572 20.7303C82.6587 20.0578 82.9594 19.1071 82.9594 17.8781V8.34766H86.7772V18.052C86.7772 19.5129 86.4649 20.7998 85.8401 21.9129C85.2386 23.0027 84.394 23.8607 83.3066 24.4868C82.2189 25.0897 80.9579 25.3911 79.5234 25.3911Z" fill="#1F242C"/>
<path d="M90.6152 25.0435V0H94.4333V25.0435H90.6152Z" fill="#1F242C"/>
<path d="M113.744 5.28661C113.096 5.28661 112.553 5.06633 112.113 4.62573C111.696 4.18517 111.488 3.64025 111.488 2.99097C111.488 2.34169 111.696 1.79676 112.113 1.35618C112.553 0.9156 113.096 0.695312 113.744 0.695312C114.415 0.695312 114.959 0.9156 115.376 1.35618C115.792 1.79676 116 2.34169 116 2.99097C116 3.64025 115.792 4.18517 115.376 4.62573C114.959 5.06633 114.415 5.28661 113.744 5.28661Z" fill="#1F242C"/>
<path d="M147.704 25.3913C146.084 25.3913 144.615 25.0087 143.296 24.2435C141.977 23.4551 140.924 22.4 140.137 21.0782C139.374 19.7565 138.992 18.2841 138.992 16.6609C138.992 15.0377 139.374 13.5768 140.137 12.2782C140.924 10.9797 141.977 9.94782 143.296 9.1826C144.615 8.39421 146.084 8 147.704 8C149.347 8 150.827 8.3826 152.146 9.14782C153.465 9.91305 154.506 10.9565 155.27 12.2782C156.057 13.5768 156.45 15.0377 156.45 16.6609C156.45 18.2841 156.057 19.7565 155.27 21.0782C154.506 22.4 153.465 23.4551 152.146 24.2435C150.827 25.0087 149.347 25.3913 147.704 25.3913ZM147.704 21.7044C148.652 21.7044 149.485 21.4957 150.203 21.0782C150.943 20.6377 151.51 20.0348 151.903 19.2696C152.32 18.5044 152.528 17.6348 152.528 16.6609C152.528 15.6869 152.32 14.829 151.903 14.0869C151.487 13.3449 150.92 12.7652 150.203 12.3478C149.485 11.9073 148.652 11.6869 147.704 11.6869C146.778 11.6869 145.945 11.9073 145.205 12.3478C144.487 12.7652 143.921 13.3449 143.504 14.0869C143.111 14.829 142.914 15.6869 142.914 16.6609C142.914 17.6348 143.111 18.5044 143.504 19.2696C143.921 20.0348 144.487 20.6377 145.205 21.0782C145.945 21.4957 146.778 21.7044 147.704 21.7044Z" fill="#1F242C"/>
<path d="M167.261 25.3913C165.641 25.3913 164.172 25.0087 162.853 24.2435C161.534 23.4551 160.481 22.4 159.694 21.0782C158.931 19.7565 158.549 18.2841 158.549 16.6609C158.549 15.0377 158.931 13.5768 159.694 12.2782C160.481 10.9797 161.534 9.94782 162.853 9.1826C164.172 8.39421 165.641 8 167.261 8C168.904 8 170.385 8.3826 171.703 9.14782C173.022 9.91305 174.064 10.9565 174.827 12.2782C175.614 13.5768 176.007 15.0377 176.007 16.6609C176.007 18.2841 175.614 19.7565 174.827 21.0782C174.064 22.4 173.022 23.4551 171.703 24.2435C170.385 25.0087 168.904 25.3913 167.261 25.3913ZM167.261 21.7044C168.209 21.7044 169.043 21.4957 169.76 21.0782C170.5 20.6377 171.067 20.0348 171.46 19.2696C171.877 18.5044 172.085 17.6348 172.085 16.6609C172.085 15.6869 171.877 14.829 171.46 14.0869C171.044 13.3449 170.477 12.7652 169.76 12.3478C169.043 11.9073 168.209 11.6869 167.261 11.6869C166.335 11.6869 165.502 11.9073 164.762 12.3478C164.044 12.7652 163.478 13.3449 163.061 14.0869C162.668 14.829 162.471 15.6869 162.471 16.6609C162.471 17.6348 162.668 18.5044 163.061 19.2696C163.478 20.0348 164.044 20.6377 164.762 21.0782C165.502 21.4957 166.335 21.7044 167.261 21.7044Z" fill="#1F242C"/>
<path d="M179.182 25.0435V0H182.999V25.0435H179.182Z" fill="#1F242C"/>
<path d="M101.216 1.39062H105.034V8.34715H111.834H115.652V11.8254V25.0428H111.834V11.8254H105.034V25.0428H101.216V11.8254H97.2246V8.34715H101.216V1.39062Z" fill="#1F242C"/>
<path fill-rule="evenodd" clip-rule="evenodd" d="M128.856 25.3913C127.583 25.3913 126.449 25.1246 125.454 24.5913C124.796 24.2233 124.229 23.7691 123.753 23.2286V32H119.936V8.34782H123.753V10.2061C124.236 9.65318 124.815 9.1961 125.489 8.83477C126.484 8.27825 127.606 8 128.856 8C130.359 8 131.713 8.39421 132.916 9.1826C134.142 9.94782 135.103 10.9913 135.797 12.3131C136.514 13.6116 136.873 15.0841 136.873 16.7304C136.873 18.3536 136.514 19.8261 135.797 21.1478C135.103 22.4464 134.142 23.4782 132.916 24.2435C131.713 25.0087 130.359 25.3913 128.856 25.3913ZM130.66 21.1478C129.966 21.5652 129.156 21.7739 128.231 21.7739C127.305 21.7739 126.484 21.5652 125.766 21.1478C125.049 20.7073 124.494 20.1044 124.101 19.3391C123.707 18.5739 123.51 17.6927 123.51 16.6957C123.51 15.6986 123.707 14.8174 124.101 14.0522C124.494 13.2869 125.049 12.6956 125.766 12.2782C126.484 11.8377 127.305 11.6174 128.231 11.6174C129.156 11.6174 129.966 11.8377 130.66 12.2782C131.377 12.6956 131.933 13.2869 132.326 14.0522C132.743 14.8174 132.951 15.6986 132.951 16.6957C132.951 17.6927 132.743 18.5739 132.326 19.3391C131.933 20.1044 131.377 20.7073 130.66 21.1478Z" fill="#1F242C"/>
<path d="M42.791 25.0435V8.34782H46.6089V10.0547C47.0586 9.54886 47.5906 9.13061 48.2055 8.8C49.1542 8.26667 50.2185 8 51.3987 8C52.5787 8 53.643 8.25509 54.5917 8.76523C55.4921 9.24934 56.2153 9.92143 56.7613 10.7815C57.3667 9.93807 58.1245 9.27759 59.0343 8.8C60.0292 8.26667 61.1168 8 62.2968 8C63.5001 8 64.5875 8.25509 65.5595 8.76523C66.5313 9.27537 67.3064 9.99421 67.8848 10.9218C68.4632 11.8493 68.7525 12.9623 68.7525 14.2609V25.0435H64.9347V15.0956C64.9347 13.9826 64.5875 13.1246 63.8934 12.5218C63.1993 11.8957 62.3432 11.5826 61.325 11.5826C60.654 11.5826 60.041 11.7218 59.4856 12C58.9302 12.2782 58.4905 12.6841 58.1667 13.2174C57.8426 13.7275 57.6808 14.3536 57.6808 15.0956V25.0435H53.863V15.0956C53.863 13.9826 53.5158 13.1246 52.8218 12.5218C52.1274 11.8957 51.2713 11.5826 50.2534 11.5826C49.559 11.5826 48.9344 11.7218 48.3791 12C47.8468 12.2782 47.4189 12.6841 47.0947 13.2174C46.7709 13.7275 46.6089 14.3536 46.6089 15.0956V25.0435H42.791Z" fill="#1F242C"/>
</g>
<defs>
<clipPath id="clip0_1_670">
<rect width="183" height="32" fill="white"/>
</clipPath>
</defs>
</svg>
