<svg width="136" height="24" viewBox="0 0 136 24" fill="none" xmlns="http://www.w3.org/2000/svg">
<g clip-path="url(#clip0_124_14007)">
<mask id="mask0_124_14007" style="mask-type:luminance" maskUnits="userSpaceOnUse" x="0" y="0" width="24" height="24">
<path d="M23.6816 0H0V24H23.6816V0Z" fill="white"/>
</mask>
<g mask="url(#mask0_124_14007)">
<mask id="mask1_124_14007" style="mask-type:luminance" maskUnits="userSpaceOnUse" x="0" y="0" width="24" height="24">
<path d="M23.5765 0H0V24H23.5765V0Z" fill="white"/>
</mask>
<g mask="url(#mask1_124_14007)">
<path d="M3.25803 3.69423C3.15164 3.79898 3.14695 3.79434 3.24398 3.68042C3.32598 3.58451 3.43357 3.47126 3.56672 3.3407C3.99822 2.91676 4.44515 2.53919 4.90751 2.20798C4.97253 2.16132 5.00465 2.13309 5.06859 2.08752C5.09935 2.0656 5.12804 2.04517 5.14795 2.03226C5.59157 1.7481 5.98303 1.51932 6.32238 1.3459C9.14922 -0.0989068 12.3708 -0.403487 15.3994 0.556513C16.1332 0.789002 16.8109 1.10249 17.4326 1.49699C19.0226 2.50625 20.1051 4.27516 19.8514 6.23962C19.6382 7.89228 18.4737 9.271 16.8237 9.49178C15.2431 9.70325 13.8586 8.68618 13.3596 7.16927C13.1759 6.61119 13.0257 5.9849 12.7697 5.39436C12.0741 3.78915 10.9042 2.69542 9.08244 2.17824C8.72058 2.07551 8.38958 2.02665 8.13763 1.99561C7.09968 1.89048 6.03243 2.04518 5.06888 2.48223C4.39556 2.78771 3.76881 3.19171 3.25803 3.69423Z" fill="#DCE1F5"/>
<path d="M0.636707 8.13963C1.28396 6.1202 2.5158 4.22242 4.42359 3.25942C5.35376 2.78994 6.38027 2.58539 7.41881 2.72265C9.23756 2.96294 10.7974 4.20349 11.2499 6.05412C11.2642 6.11218 11.2786 6.19529 11.2932 6.30342C11.3085 6.41606 11.3354 6.53231 11.3436 6.63805C11.4786 8.44029 10.4205 9.98452 8.80644 10.6099C8.43859 10.7523 7.91757 10.8586 7.57081 10.9262C7.0333 11.0311 6.51118 11.1893 6.0045 11.4008C4.02057 12.2289 2.6345 13.8065 2.19919 16.1719C2.18059 16.2731 2.16376 16.3837 2.15673 16.4318C2.08995 16.8863 2.06601 17.2679 2.11895 17.7994C2.13145 17.9249 2.15204 18.0514 2.16053 18.1196C2.18689 18.3392 2.22914 18.5581 2.29906 18.833C2.32495 18.9347 2.33904 18.992 2.37082 19.0919C2.43542 19.2951 2.50554 19.4232 2.57525 19.5974C2.57543 19.5983 2.57534 19.5991 2.575 19.5999C2.57466 19.6007 2.5741 19.6013 2.57336 19.6018C2.57263 19.6022 2.57178 19.6023 2.57097 19.6022C2.57013 19.6021 2.56939 19.6017 2.5688 19.601C2.45254 19.4328 2.37024 19.2778 2.24049 19.1183C2.22087 19.0943 2.1702 19.0207 2.14911 18.991C1.87752 18.6129 1.63629 18.2155 1.42542 17.7988C1.0069 16.9722 0.651645 16.0911 0.438725 15.1837C0.42701 15.1336 0.403579 15.0906 0.392744 15.044C0.237131 14.363 0.130817 13.7361 0.0738035 13.1634C-0.0913776 11.5035 0.108656 9.78658 0.636707 8.13963Z" fill="#DCE1F5"/>
<path d="M4.06894 16.1653C4.64472 14.5192 6.02914 13.3778 7.72253 13.1471C8.27285 13.0723 8.82258 13.0696 9.39105 13.1474C9.89752 13.2169 10.243 13.2716 10.4275 13.3114C10.9619 13.4266 11.3999 13.5033 11.7417 13.5415C13.2936 13.7155 14.7958 13.7599 16.2915 13.3313C17.4425 13.0011 18.5785 12.3968 19.4592 11.5666C20.701 10.3963 21.3917 8.92846 21.5313 7.16306C21.6071 6.20635 21.4288 5.13641 20.92 4.28606C20.9177 4.28224 20.9172 4.27925 20.9186 4.27705C20.9207 4.27365 20.9232 4.27353 20.9259 4.27675C21.4835 4.95559 21.9513 5.6949 22.3294 6.49472C22.6132 7.09547 22.8051 7.58267 23.0313 8.34233C23.0338 8.35054 23.0437 8.3949 23.0615 8.47541C23.0753 8.53728 23.1035 8.59074 23.1166 8.6493C23.154 8.81472 23.1921 8.98002 23.2309 9.14523C23.2458 9.20951 23.2914 9.41568 23.3247 9.59008C23.7573 11.8386 23.5929 13.5436 23.0464 15.4516C21.6888 20.1912 17.5247 23.4419 12.7966 23.9306C12.0395 24.009 11.2265 23.9907 10.5154 23.9208C10.1589 23.8856 9.72638 23.8136 9.21795 23.7048C8.33435 23.5155 7.47681 23.1914 6.69953 22.7183C6.69739 22.7171 6.66721 22.7017 6.60902 22.672C6.56157 22.648 6.52233 22.6069 6.48338 22.5816C5.27792 21.791 4.30528 20.5748 3.94388 19.1423C3.78368 18.507 3.71924 17.6846 3.85513 17.037C3.87211 16.9553 3.868 16.8727 3.88704 16.7931C3.9425 16.5622 4.00312 16.353 4.06894 16.1653Z" fill="#DCE1F5"/>
</g>
</g>
<path d="M59.0993 19.0433C58.0503 19.0433 57.1132 18.8086 56.2878 18.339C55.4797 17.8694 54.8434 17.226 54.379 16.4086C53.932 15.5738 53.7085 14.6173 53.7085 13.539V6.26074H56.5458V13.4086C56.5458 14.0173 56.6403 14.539 56.8295 14.9738C57.0359 15.3912 57.3282 15.7129 57.7064 15.939C58.102 16.1651 58.5662 16.2781 59.0993 16.2781C59.9248 16.2781 60.5525 16.0347 60.9824 15.5477C61.4294 15.0433 61.6529 14.3303 61.6529 13.4086V6.26074H64.4902V13.539C64.4902 14.6347 64.2581 15.5999 63.7937 16.4347C63.3467 17.2521 62.719 17.8955 61.9109 18.3651C61.1026 18.8173 60.1655 19.0433 59.0993 19.0433Z" fill="#DCE1F5"/>
<path d="M67.3425 18.7826V0H70.18V18.7826H67.3425Z" fill="#DCE1F5"/>
<path d="M84.5314 3.96496C84.0499 3.96496 83.6457 3.79975 83.3191 3.4693C83.0095 3.13888 82.8547 2.73019 82.8547 2.24322C82.8547 1.75627 83.0095 1.34757 83.3191 1.01713C83.6457 0.6867 84.0499 0.521484 84.5314 0.521484C85.0301 0.521484 85.4342 0.6867 85.7437 1.01713C86.0531 1.34757 86.2081 1.75627 86.2081 2.24322C86.2081 2.73019 86.0531 3.13888 85.7437 3.4693C85.4342 3.79975 85.0301 3.96496 84.5314 3.96496Z" fill="#DCE1F5"/>
<path d="M109.769 19.0435C108.565 19.0435 107.473 18.7565 106.493 18.1826C105.513 17.5913 104.731 16.8 104.146 15.8087C103.578 14.8174 103.295 13.7131 103.295 12.4957C103.295 11.2783 103.578 10.1826 104.146 9.20869C104.731 8.23479 105.513 7.46087 106.493 6.88695C107.473 6.29566 108.565 6 109.769 6C110.99 6 112.09 6.28695 113.071 6.86087C114.051 7.43479 114.824 8.21739 115.392 9.20869C115.977 10.1826 116.269 11.2783 116.269 12.4957C116.269 13.7131 115.977 14.8174 115.392 15.8087C114.824 16.8 114.051 17.5913 113.071 18.1826C112.09 18.7565 110.99 19.0435 109.769 19.0435ZM109.769 16.2783C110.474 16.2783 111.093 16.1217 111.626 15.8087C112.176 15.4783 112.598 15.0261 112.89 14.4522C113.199 13.8783 113.354 13.2261 113.354 12.4957C113.354 11.7652 113.199 11.1217 112.89 10.5652C112.581 10.0087 112.159 9.57392 111.626 9.26087C111.093 8.93045 110.474 8.76521 109.769 8.76521C109.081 8.76521 108.462 8.93045 107.912 9.26087C107.379 9.57392 106.957 10.0087 106.648 10.5652C106.356 11.1217 106.209 11.7652 106.209 12.4957C106.209 13.2261 106.356 13.8783 106.648 14.4522C106.957 15.0261 107.379 15.4783 107.912 15.8087C108.462 16.1217 109.081 16.2783 109.769 16.2783Z" fill="#DCE1F5"/>
<path d="M124.303 19.0435C123.099 19.0435 122.008 18.7565 121.027 18.1826C120.047 17.5913 119.265 16.8 118.68 15.8087C118.113 14.8174 117.829 13.7131 117.829 12.4957C117.829 11.2783 118.113 10.1826 118.68 9.20869C119.265 8.23479 120.047 7.46087 121.027 6.88695C122.008 6.29566 123.099 6 124.303 6C125.524 6 126.625 6.28695 127.605 6.86087C128.585 7.43479 129.359 8.21739 129.926 9.20869C130.511 10.1826 130.803 11.2783 130.803 12.4957C130.803 13.7131 130.511 14.8174 129.926 15.8087C129.359 16.8 128.585 17.5913 127.605 18.1826C126.625 18.7565 125.524 19.0435 124.303 19.0435ZM124.303 16.2783C125.008 16.2783 125.627 16.1217 126.16 15.8087C126.711 15.4783 127.132 15.0261 127.424 14.4522C127.734 13.8783 127.889 13.2261 127.889 12.4957C127.889 11.7652 127.734 11.1217 127.424 10.5652C127.115 10.0087 126.693 9.57392 126.16 9.26087C125.627 8.93045 125.008 8.76521 124.303 8.76521C123.615 8.76521 122.996 8.93045 122.446 9.26087C121.913 9.57392 121.492 10.0087 121.182 10.5652C120.89 11.1217 120.744 11.7652 120.744 12.4957C120.744 13.2261 120.89 13.8783 121.182 14.4522C121.492 15.0261 121.913 15.4783 122.446 15.8087C122.996 16.1217 123.615 16.2783 124.303 16.2783Z" fill="#DCE1F5"/>
<path d="M133.162 18.7826V0H136V18.7826H133.162Z" fill="#DCE1F5"/>
<path d="M75.2207 1.04297H78.058V6.26036H83.1118H85.9491V8.86904V18.7821H83.1118V8.86904H78.058V18.7821H75.2207V8.86904H72.2544V6.26036H75.2207V1.04297Z" fill="#DCE1F5"/>
<path fill-rule="evenodd" clip-rule="evenodd" d="M95.7614 19.0435C94.8155 19.0435 93.9728 18.8435 93.2335 18.4435C92.7446 18.1675 92.3232 17.8268 91.9696 17.4215V24H89.1323V6.26087H91.9696V7.65454C92.3284 7.23989 92.7583 6.89707 93.2592 6.62608C93.9988 6.20869 94.8326 6 95.7614 6C96.8789 6 97.885 6.29566 98.7791 6.88695C99.6905 7.46087 100.404 8.24347 100.92 9.23479C101.453 10.2087 101.72 11.3131 101.72 12.5478C101.72 13.7652 101.453 14.8696 100.92 15.8609C100.404 16.8348 99.6905 17.6087 98.7791 18.1826C97.885 18.7565 96.8789 19.0435 95.7614 19.0435ZM97.1026 15.8609C96.5866 16.1739 95.9849 16.3304 95.297 16.3304C94.6091 16.3304 93.9988 16.1739 93.4656 15.8609C92.9327 15.5304 92.5199 15.0783 92.2276 14.5043C91.9351 13.9304 91.7889 13.2696 91.7889 12.5217C91.7889 11.7739 91.9351 11.1131 92.2276 10.5391C92.5199 9.96521 92.9327 9.52174 93.4656 9.20869C93.9988 8.87826 94.6091 8.71305 95.297 8.71305C95.9849 8.71305 96.5866 8.87826 97.1026 9.20869C97.6356 9.52174 98.0483 9.96521 98.3406 10.5391C98.6503 11.1131 98.805 11.7739 98.805 12.5217C98.805 13.2696 98.6503 13.9304 98.3406 14.5043C98.0483 15.0783 97.6356 15.5304 97.1026 15.8609Z" fill="#DCE1F5"/>
<path d="M31.801 18.7826V6.26087H34.6383V7.54105C34.9726 7.16165 35.3679 6.84795 35.8249 6.6C36.5299 6.2 37.3209 6 38.198 6C39.0749 6 39.8658 6.19131 40.5709 6.57392C41.2401 6.93701 41.7775 7.44107 42.1833 8.0861C42.6332 7.45355 43.1964 6.95819 43.8725 6.6C44.6119 6.2 45.4202 6 46.2971 6C47.1914 6 47.9995 6.19131 48.7219 6.57392C49.444 6.95653 50.0201 7.49566 50.4499 8.19131C50.8798 8.88695 51.0948 9.72174 51.0948 10.6957V18.7826H48.2575V11.3217C48.2575 10.4869 47.9995 9.84347 47.4837 9.39131C46.9678 8.92174 46.3316 8.68695 45.5749 8.68695C45.0762 8.68695 44.6207 8.79131 44.2079 9C43.7952 9.20869 43.4684 9.51305 43.2277 9.91305C42.9869 10.2957 42.8666 10.7652 42.8666 11.3217V18.7826H40.0294V11.3217C40.0294 10.4869 39.7713 9.84347 39.2555 9.39131C38.7395 8.92174 38.1033 8.68695 37.3468 8.68695C36.8308 8.68695 36.3666 8.79131 35.9539 9C35.5583 9.20869 35.2403 9.51305 34.9994 9.91305C34.7587 10.2957 34.6383 10.7652 34.6383 11.3217V18.7826H31.801Z" fill="#DCE1F5"/>
</g>
<defs>
<clipPath id="clip0_124_14007">
<rect width="136" height="24" fill="white"/>
</clipPath>
</defs>
</svg>
