<svg width="20" height="20" viewBox="0 0 20 20" fill="none" xmlns="http://www.w3.org/2000/svg">
<path d="M17.9945 10.0033V9.9723C17.9787 5.58252 14.3898 2 9.99724 2C5.60469 2 2 5.58252 2 10.0033C2 14.4247 5.58838 18 9.99724 18C12.0203 18.0014 13.966 17.2342 15.4296 15.858C15.5737 15.7283 15.6597 15.5474 15.6685 15.3552C15.6773 15.1631 15.6082 14.9753 15.4765 14.8333C15.3448 14.6913 15.1613 14.6066 14.9662 14.5979C14.7712 14.5893 14.5806 14.6573 14.4365 14.787L14.4207 14.8025C13.7892 15.394 13.043 15.8536 12.2267 16.1539C11.4104 16.4541 10.541 16.5887 9.67059 16.5497C8.8002 16.5106 7.9468 16.2986 7.16161 15.9265C6.37643 15.5544 5.67567 15.0298 5.10138 14.3842L8.51769 8.98663V11.4843C8.51769 12.6777 8.99007 13.0661 9.38709 13.1747C9.78411 13.2833 10.3796 13.2047 11.0247 12.1968L12.899 9.19828C12.949 9.11074 13.007 9.02763 13.0711 8.94951V10.4704C13.0711 11.5868 13.5277 12.4866 14.3144 12.9204C14.6776 13.1152 15.0876 13.2095 15.5008 13.1932C15.9139 13.1769 16.3149 13.0507 16.6611 12.8279C17.5699 12.2467 18.058 11.2289 17.9945 10.0033ZM15.916 11.5741C15.7898 11.6597 15.6427 11.7106 15.4898 11.7214C15.337 11.7322 15.184 11.7026 15.0466 11.6356C14.7317 11.45 14.5422 11.0316 14.5422 10.4576V8.69963C14.5422 7.86301 14.2115 7.25743 13.6452 7.1034C12.6842 6.81751 11.961 7.98712 11.6927 8.4215L9.99724 11.1042V7.80096C9.9815 7.04135 9.729 6.59145 9.25662 6.45128C8.9417 6.35875 8.46933 6.40584 8.01326 7.08844L4.21905 13.075C3.7143 12.1274 3.44977 11.0735 3.44806 10.0033C3.44806 6.38922 6.39143 3.45772 9.99724 3.45772C13.6031 3.45772 16.5464 6.38922 16.5464 10.0033V10.0349C16.5841 10.7319 16.3569 11.2915 15.9166 11.5696L15.916 11.5741Z" fill="#AAB9D0"/>
</svg>
