<svg width="24" height="24" viewBox="0 0 24 24" fill="none" xmlns="http://www.w3.org/2000/svg">
<path d="M13.5374 12.0004C13.5374 15.7117 10.507 18.7205 6.76859 18.7205C3.03022 18.7205 0 15.7126 0 12.0004C0 8.28816 3.03045 5.28052 6.76859 5.28052C10.5067 5.28052 13.5374 8.28907 13.5374 12.0004ZM20.9629 12.0004C20.9629 15.4942 19.4475 18.3262 17.5785 18.3262C15.7094 18.3262 14.1941 15.4933 14.1941 12.0004C14.1941 8.50754 15.7094 5.67463 17.5785 5.67463C19.4475 5.67463 20.9629 8.50754 20.9629 12.0004ZM24 12.0004C24 15.1307 23.467 17.668 22.8097 17.668C22.1523 17.668 21.6193 15.1298 21.6193 12.0004C21.6193 8.87106 22.1523 6.33277 22.8099 6.33277C23.4675 6.33277 24 8.87038 24 12.0004Z" fill="#768398"/>
</svg>
