<svg width="20" height="20" viewBox="0 0 20 20" fill="none" xmlns="http://www.w3.org/2000/svg">
<path fill-rule="evenodd" clip-rule="evenodd" d="M7.33325 18.3337C5.12411 18.3337 3.33325 16.5428 3.33325 14.3337V5.66699C3.33325 3.45785 5.12411 1.66699 7.33325 1.66699H12.6666C14.8757 1.66699 16.6666 3.45785 16.6666 5.66699V14.3337C16.6666 16.5428 14.8757 18.3337 12.6666 18.3337H7.33325ZM6.04159 5.00032C6.04159 4.65515 6.32141 4.37532 6.66659 4.37532H13.3333C13.6784 4.37532 13.9583 4.65515 13.9583 5.00032C13.9583 5.3455 13.6784 5.62532 13.3333 5.62532H6.66659C6.32141 5.62532 6.04159 5.3455 6.04159 5.00032ZM7.29159 8.33366C7.29159 8.67884 7.01176 8.95866 6.66659 8.95866C6.32141 8.95866 6.04159 8.67884 6.04159 8.33366C6.04159 7.98848 6.32141 7.70866 6.66659 7.70866C7.01176 7.70866 7.29159 7.98848 7.29159 8.33366ZM10.6249 8.33366C10.6249 8.67884 10.3451 8.95866 9.99992 8.95866C9.65474 8.95866 9.37492 8.67884 9.37492 8.33366C9.37492 7.98848 9.65474 7.70866 9.99992 7.70866C10.3451 7.70866 10.6249 7.98848 10.6249 8.33366ZM13.3333 8.95866C13.6784 8.95866 13.9583 8.67884 13.9583 8.33366C13.9583 7.98848 13.6784 7.70866 13.3333 7.70866C12.9881 7.70866 12.7083 7.98848 12.7083 8.33366C12.7083 8.67884 12.9881 8.95866 13.3333 8.95866ZM6.66659 12.292C7.01176 12.292 7.29159 12.0122 7.29159 11.667C7.29159 11.3218 7.01176 11.042 6.66659 11.042C6.32141 11.042 6.04159 11.3218 6.04159 11.667C6.04159 12.0122 6.32141 12.292 6.66659 12.292ZM9.99992 12.292C10.3451 12.292 10.6249 12.0122 10.6249 11.667C10.6249 11.3218 10.3451 11.042 9.99992 11.042C9.65474 11.042 9.37492 11.3218 9.37492 11.667C9.37492 12.0122 9.65474 12.292 9.99992 12.292ZM13.9583 11.667C13.9583 12.0122 13.6784 12.292 13.3333 12.292C12.9881 12.292 12.7083 12.0122 12.7083 11.667C12.7083 11.3218 12.9881 11.042 13.3333 11.042C13.6784 11.042 13.9583 11.3218 13.9583 11.667ZM7.29159 15.0003C7.29159 15.3455 7.01176 15.6253 6.66659 15.6253C6.32141 15.6253 6.04159 15.3455 6.04159 15.0003C6.04159 14.6551 6.32141 14.3753 6.66659 14.3753C7.01176 14.3753 7.29159 14.6551 7.29159 15.0003ZM10.6249 15.0003C10.6249 15.3455 10.3451 15.6253 9.99992 15.6253C9.65474 15.6253 9.37492 15.3455 9.37492 15.0003C9.37492 14.6551 9.65474 14.3753 9.99992 14.3753C10.3451 14.3753 10.6249 14.6551 10.6249 15.0003ZM13.3333 15.6253C13.6784 15.6253 13.9583 15.3455 13.9583 15.0003C13.9583 14.6551 13.6784 14.3753 13.3333 14.3753C12.9881 14.3753 12.7083 14.6551 12.7083 15.0003C12.7083 15.3455 12.9881 15.6253 13.3333 15.6253Z" fill="#8594AA"/>
</svg>
