<svg width="20" height="20" viewBox="0 0 20 20" fill="none" xmlns="http://www.w3.org/2000/svg">
<path fill-rule="evenodd" clip-rule="evenodd" d="M8.33342 4.16667C8.33342 3.24619 9.07961 2.5 10.0001 2.5C10.9206 2.5 11.6667 3.24619 11.6667 4.16667V15.8333C11.6667 16.7538 10.9206 17.5 10.0001 17.5C9.07961 17.5 8.33342 16.7538 8.33342 15.8333V4.16667ZM1.66675 8.33333C1.66675 7.41286 2.41294 6.66667 3.33341 6.66667C4.25389 6.66667 5.00008 7.41286 5.00008 8.33333V15.8333C5.00008 16.7538 4.25389 17.5 3.33341 17.5C2.41294 17.5 1.66675 16.7538 1.66675 15.8333V8.33333ZM16.6667 6.66667C15.7463 6.66667 15.0001 7.41286 15.0001 8.33333V15.8333C15.0001 16.7538 15.7463 17.5 16.6667 17.5C17.5872 17.5 18.3334 16.7538 18.3334 15.8333V8.33333C18.3334 7.41286 17.5872 6.66667 16.6667 6.66667Z" fill="#1F242C"/>
</svg>
