<svg width="32.000000" height="32.000000" viewBox="0 0 32 32" fill="none" xmlns="http://www.w3.org/2000/svg" xmlns:xlink="http://www.w3.org/1999/xlink">
	<desc>
			Created with Pixso.
	</desc>
	<defs>
		<clipPath id="clip1_2142">
			<rect id="usd-coin-usdc-logo 1" rx="-0.500000" width="31.000000" height="31.000000" transform="translate(0.500000 0.500000)" fill="white" fill-opacity="0"/>
		</clipPath>
	</defs>
	<rect id="usd-coin-usdc-logo 1" rx="-0.500000" width="31.000000" height="31.000000" transform="translate(0.500000 0.500000)" fill="#FFFFFF" fill-opacity="0"/>
	<g clip-path="url(#clip1_2142)">
		<path id="Vector" d="M16 32C24.86 32 32 24.86 32 16C32 7.13 24.86 0 16 0C7.13 0 0 7.13 0 16C0 24.86 7.13 32 16 32Z" fill="#50AF95" fill-opacity="1.000000" fill-rule="nonzero"/>
		<path id="Vector" d="M17.83 17.6C17.72 17.6 17.2 17.63 16.02 17.63C15.08 17.63 14.41 17.61 14.18 17.6C10.56 17.44 7.85 16.83 7.85 16.1C7.85 15.38 10.56 14.77 14.18 14.61L14.18 16.99C14.42 17.01 15.1 17.04 16.03 17.04C17.16 17.04 17.72 17 17.82 16.99L17.82 14.61C21.44 14.77 24.14 15.38 24.14 16.1C24.14 16.83 21.44 17.44 17.82 17.59L17.83 17.6ZM17.83 14.37L17.83 12.24L22.87 12.24L22.87 9L9.13 9L9.13 12.24L14.18 12.24L14.18 14.37C10.08 14.55 7 15.33 7 16.27C7 17.21 10.08 17.99 14.18 18.18L14.18 25L17.83 25L17.83 18.17C21.92 17.99 25 17.21 25 16.27C25 15.33 21.92 14.55 17.83 14.37L17.83 14.37Z" fill="#DCE1F5" fill-opacity="1.000000" fill-rule="evenodd"/>
	</g>
</svg>
