<svg width="24" height="24" viewBox="0 0 24 24" fill="none" xmlns="http://www.w3.org/2000/svg">
<g clip-path="url(#clip0_401_952)">
<path fill-rule="evenodd" clip-rule="evenodd" d="M19.8076 5.37538C20.6712 5.614 21.353 6.29578 21.5802 7.15936C22.0007 8.72744 22.0007 12 22.0007 12C22.0007 12 22.0007 15.2725 21.5916 16.8405C21.353 17.7155 20.6826 18.3973 19.819 18.6245C18.2509 19.0449 12.0013 19.0449 12.0013 19.0449C12.0013 19.0449 5.75171 19.0449 4.19499 18.6245C3.33141 18.3859 2.64964 17.7041 2.42238 16.8405C2.00195 15.2725 2.00195 12 2.00195 12C2.00195 12 2.00195 8.72744 2.41102 7.15936C2.64964 6.28442 3.32005 5.60264 4.18363 5.37538C5.75171 4.95496 12.0013 4.95496 12.0013 4.95496C12.0013 4.95496 18.2509 4.95496 19.8076 5.37538ZM15.182 12.0004L9.95508 9.02332V14.9775L15.182 12.0004Z" fill="#768398"/>
</g>
<defs>
<clipPath id="clip0_401_952">
<rect width="20" height="20" fill="white" transform="translate(2 2)"/>
</clipPath>
</defs>
</svg>
